<svg width="143" height="22" viewBox="0 0 143 22" fill="none" xmlns="http://www.w3.org/2000/svg">
<path d="M12.672 19.528C13.056 19.528 13.568 19.0907 14.208 18.216C14.848 17.32 15.4773 16.1787 16.096 14.792C16.736 13.384 17.12 12.68 17.248 12.68C17.3973 12.68 17.472 12.7653 17.472 12.936C17.472 13.5333 17.1627 14.4827 16.544 15.784C14.8587 19.368 13.4293 21.16 12.256 21.16C11.2747 21.16 10.5707 20.9893 10.144 20.648C9.952 20.456 9.856 18.4293 9.856 14.568L4.608 14.952C4.20267 16.0613 3.84 17.1707 3.52 18.28C3.2 19.3893 2.98667 20.072 2.88 20.328C2.64533 20.8827 2.08 21.16 1.184 21.16C0.586667 21.16 0.288 20.904 0.288 20.392C0.288 19.88 0.693333 19.1333 1.504 18.152C1.65333 17.96 2.144 16.9253 2.976 15.048C2.67733 15.0693 2.38933 15.08 2.112 15.08C1.36533 15.08 0.992 14.76 0.992 14.12C0.992 13.544 1.29067 13.256 1.888 13.256C1.93067 13.256 2.53867 13.3093 3.712 13.416C4.032 12.6693 4.37333 11.9333 4.736 11.208C7.53067 5.36267 9.45067 2.44 10.496 2.44C11.2853 2.44 11.8293 6.09867 12.128 13.416H12.416C12.5653 13.416 12.64 13.5227 12.64 13.736C12.64 13.9493 12.48 14.1307 12.16 14.28C12.288 17.7787 12.4587 19.528 12.672 19.528ZM5.088 13.576C7.584 13.576 9.17333 13.5653 9.856 13.544C9.83467 13.2027 9.81333 12.6053 9.792 11.752C9.77067 10.8987 9.74933 10.1627 9.728 9.544C9.70667 8.904 9.68533 8.24267 9.664 7.56C9.57867 6.088 9.45067 5.352 9.28 5.352C9.04533 5.352 8.56533 6.04533 7.84 7.432C7.11467 8.81867 6.54933 9.992 6.144 10.952C5.58933 12.3387 5.23733 13.2133 5.088 13.576ZM16.0312 18.216L16.2233 14.632C16.2233 12.3493 16.3299 11.1013 16.5433 10.888C16.7566 10.6747 17.1299 10.3653 17.6633 9.96C18.2179 9.53333 18.6126 9.32 18.8473 9.32C19.1033 9.32 19.2633 9.36267 19.3273 9.448C19.3913 9.53333 19.4233 9.704 19.4233 9.96C19.4233 10.8773 19.2206 11.8053 18.8153 12.744C18.4953 14.7067 18.3353 16.3173 18.3353 17.576C18.3353 18.8347 18.5379 19.464 18.9433 19.464C19.4339 19.464 20.0099 19.0373 20.6713 18.184C21.3326 17.3307 21.9939 16.0613 22.6553 14.376C22.8473 12.2427 22.9966 11.0907 23.1033 10.92C23.2313 10.7493 23.5299 10.44 23.9993 9.992C24.4686 9.544 24.8526 9.32 25.1513 9.32C25.4713 9.32 25.6313 9.72533 25.6313 10.536C25.6313 10.7493 25.5673 11.1653 25.4392 11.784C25.3326 12.4027 25.2046 12.8507 25.0553 13.128C24.8206 13.7253 24.7033 15.5707 24.7033 18.664C24.7033 19.24 24.7673 19.528 24.8953 19.528C25.2579 19.5067 25.7593 19.0587 26.3993 18.184C27.0393 17.288 27.6686 16.1467 28.2873 14.76C28.9273 13.3733 29.3113 12.68 29.4393 12.68C29.5886 12.68 29.6633 12.7653 29.6633 12.936C29.6633 13.5333 29.3539 14.4827 28.7353 15.784C27.0499 19.368 25.6313 21.16 24.4792 21.16C23.6473 21.16 23.0179 20.9893 22.5913 20.648C22.4419 20.4987 22.3673 20.04 22.3673 19.272C22.3673 18.504 22.3993 17.6507 22.4633 16.712C21.7806 18.1627 21.0979 19.272 20.4153 20.04C19.7326 20.7867 18.9646 21.16 18.1113 21.16C17.2793 21.16 16.7246 20.936 16.4473 20.488C16.1699 20.04 16.0312 19.2827 16.0312 18.216ZM36.8388 21.16C36.1134 21.16 35.5481 21 35.1428 20.68C34.9721 20.5093 34.8868 20.0613 34.8868 19.336C34.8868 18.6107 34.9188 17.6613 34.9828 16.488C34.4068 18.024 33.8201 19.1867 33.2228 19.976C32.6254 20.7653 31.8681 21.16 30.9508 21.16C30.0548 21.16 29.2868 20.7653 28.6468 19.976C28.0281 19.1867 27.7188 17.928 27.7188 16.2C27.7188 14.472 28.1988 12.9467 29.1588 11.624C30.1401 10.3013 31.4201 9.64 32.9988 9.64C33.7668 9.64 34.5668 9.93867 35.3988 10.536C35.7401 6.376 36.0494 4.02933 36.3268 3.496C36.4548 3.26133 36.7534 2.92 37.2228 2.472C37.7134 2.024 38.1188 1.8 38.4388 1.8C38.7588 1.8 38.9188 2.30133 38.9188 3.304C38.9188 4.47733 38.8121 5.49067 38.5988 6.344C38.0228 8.54133 37.6601 9.93867 37.5108 10.536C37.2121 12.84 37.0628 15.5493 37.0628 18.664C37.0628 19.24 37.1268 19.528 37.2548 19.528C37.6388 19.5067 38.1508 19.0587 38.7908 18.184C39.4308 17.3093 40.0601 16.1787 40.6788 14.792C41.3188 13.384 41.7028 12.68 41.8308 12.68C41.9801 12.68 42.0548 12.7653 42.0548 12.936C42.0548 13.5333 41.7454 14.4827 41.1268 15.784C39.4414 19.368 38.0121 21.16 36.8388 21.16ZM32.8068 10.792C32.2308 10.792 31.6548 11.2507 31.0788 12.168C30.5028 13.0853 30.2148 14.152 30.2148 15.368C30.2148 16.5627 30.3641 17.544 30.6628 18.312C30.9828 19.08 31.3774 19.464 31.8468 19.464C32.8068 19.464 33.9054 17.544 35.1428 13.704C35.2494 12.5307 35.3028 11.8373 35.3028 11.624C34.6841 11.0693 33.8521 10.792 32.8068 10.792ZM41.4965 5.352C41.4965 4.968 41.6992 4.63733 42.1045 4.36C42.5098 4.08267 42.8725 3.944 43.1925 3.944C43.7685 3.944 44.0565 4.27467 44.0565 4.936C44.0565 5.59733 43.8858 6.17333 43.5445 6.664C43.2032 7.13333 42.7232 7.368 42.1045 7.368C41.6992 7.368 41.4965 6.696 41.4965 5.352ZM42.4245 21.16C41.5925 21.16 40.9632 20.9893 40.5365 20.648C40.3872 20.4987 40.3125 19.9653 40.3125 19.048C40.3125 18.1307 40.3765 16.6053 40.5045 14.472C40.6538 12.3173 40.7818 11.1547 40.8885 10.984C40.9952 10.8133 41.3258 10.4933 41.8805 10.024C42.4352 9.55467 42.8618 9.32 43.1605 9.32C43.4805 9.32 43.6405 9.72533 43.6405 10.536C43.6405 10.7493 43.5765 11.1653 43.4485 11.784C43.3418 12.4027 43.2138 12.8507 43.0645 13.128C42.7872 13.832 42.6485 15.6773 42.6485 18.664C42.6485 19.24 42.7125 19.528 42.8405 19.528C43.2032 19.5067 43.7045 19.0587 44.3445 18.184C44.9845 17.288 45.6138 16.1467 46.2325 14.76C46.8725 13.3733 47.2565 12.68 47.3845 12.68C47.5338 12.68 47.6085 12.7653 47.6085 12.936C47.6085 13.5333 47.2992 14.4827 46.6805 15.784C44.9952 19.368 43.5765 21.16 42.4245 21.16ZM53.0743 15.784C51.3889 19.368 49.9596 21.16 48.7863 21.16C47.6343 21.16 46.9516 21.0213 46.7383 20.744C46.5463 20.4667 46.4503 19.5493 46.4503 17.992C46.4503 16.4347 46.5996 14.184 46.8983 11.24C45.8316 11.0267 45.2662 10.5893 45.2022 9.928C45.2022 9.58667 45.4262 9.416 45.8742 9.416C46.3223 9.416 46.7169 9.50133 47.0583 9.672C47.2503 8.136 47.4743 6.57867 47.7303 5C47.7943 4.59467 47.9969 4.21067 48.3383 3.848C48.6796 3.48533 49.0103 3.304 49.3303 3.304C49.6076 3.304 49.7463 3.74133 49.7463 4.616C49.7463 5.02133 49.5969 6.888 49.2983 10.216C49.8743 10.1093 50.5036 9.896 51.1863 9.576C51.8903 9.256 52.3063 9.096 52.4343 9.096C52.8183 9.096 53.0103 9.21333 53.0103 9.448C53.0316 9.66133 52.6369 9.96 51.8263 10.344C51.0156 10.7067 50.1409 10.984 49.2023 11.176C48.9463 14.2907 48.8183 16.648 48.8183 18.248C48.8183 19.1013 48.9463 19.528 49.2023 19.528C49.5863 19.5067 50.0983 19.0587 50.7383 18.184C51.3783 17.3093 52.0076 16.1787 52.6263 14.792C53.2663 13.384 53.6503 12.68 53.7783 12.68C53.9276 12.68 54.0023 12.7653 54.0023 12.936C54.0023 13.5333 53.6929 14.4827 53.0743 15.784ZM65.6558 14.376C66.5518 14.376 67.3838 13.992 68.1518 13.224C68.5358 12.84 68.7918 12.648 68.9198 12.648C69.0691 12.648 69.1438 12.7547 69.1438 12.968C69.1438 13.1813 69.0051 13.4373 68.7278 13.736C67.5971 14.9947 66.1784 15.624 64.4718 15.624C64.1304 17.2027 63.5971 18.5253 62.8718 19.592C62.1464 20.6373 61.2291 21.16 60.1198 21.16C59.0104 21.16 58.2104 20.5093 57.7198 19.208C56.8451 20.5093 55.9384 21.16 54.9998 21.16C53.2291 21.16 52.3438 19.4533 52.3438 16.04C52.3438 13.672 52.5784 12.0613 53.0478 11.208C53.1331 11.0587 53.4531 10.8133 54.0078 10.472C54.5624 10.1307 54.9464 9.96 55.1598 9.96C55.4798 9.96 55.6398 10.152 55.6398 10.536C55.5971 11.5387 55.2984 12.7227 54.7438 14.088C54.6158 14.344 54.5518 14.9627 54.5518 15.944C54.5518 16.904 54.6584 17.7573 54.8718 18.504C55.1064 19.2293 55.4371 19.592 55.8638 19.592C56.2904 19.592 56.8131 19.08 57.4318 18.056C57.3251 17.5227 57.2718 16.9573 57.2718 16.36C57.2718 15.7413 57.3358 15.0907 57.4638 14.408C57.5918 13.704 57.8478 13 58.2318 12.296C58.6158 11.592 59.0744 11.24 59.6078 11.24C59.7784 11.24 59.8958 11.2933 59.9598 11.4C60.0451 11.5067 60.0878 11.7627 60.0878 12.168C60.0878 13.256 59.7998 14.6107 59.2238 16.232C59.3091 17.1707 59.5224 17.9707 59.8638 18.632C60.2264 19.272 60.6211 19.592 61.0478 19.592C61.6664 19.592 62.1891 19.1973 62.6158 18.408C63.0424 17.5973 63.3731 16.616 63.6078 15.464C62.8184 15.2507 62.2104 14.8453 61.7838 14.248C61.3571 13.6507 61.1438 12.968 61.1438 12.2C61.1438 11.4107 61.3251 10.7387 61.6878 10.184C62.0718 9.608 62.6264 9.32 63.3518 9.32C64.3331 9.32 64.8238 10.376 64.8238 12.488C64.8238 13.0427 64.7918 13.6187 64.7278 14.216C65.0478 14.3227 65.3571 14.376 65.6558 14.376ZM63.1278 10.536C62.9358 10.536 62.8398 10.8987 62.8398 11.624C62.8398 12.3493 63.1704 13.0213 63.8318 13.64C63.8531 13.5333 63.8638 13.3733 63.8638 13.16C63.8638 11.4107 63.6184 10.536 63.1278 10.536ZM76.2108 21.16C75.3788 21.16 74.7494 20.9893 74.3228 20.648C74.1734 20.4987 74.0988 20.1253 74.0988 19.528C74.0988 18.9093 74.1201 18.088 74.1628 17.064C73.6081 18.4507 73.0534 19.4853 72.4988 20.168C71.9654 20.8293 71.2721 21.16 70.4188 21.16C69.5654 21.16 68.8188 20.7653 68.1788 19.976C67.5388 19.1653 67.2188 17.9067 67.2188 16.2C67.2188 14.472 67.6988 12.9467 68.6588 11.624C69.6401 10.3013 70.9201 9.64 72.4988 9.64C73.1814 9.64 73.9494 10.088 74.8028 10.984C74.9734 10.7493 75.2721 10.472 75.6988 10.152C76.1468 9.81067 76.5201 9.64 76.8188 9.64C77.1388 9.64 77.2988 10.0453 77.2988 10.856C77.2988 11.0693 77.2348 11.4853 77.1068 12.104C77.0001 12.7227 76.8721 13.1707 76.7228 13.448C76.5308 13.9387 76.4348 15.6773 76.4348 18.664C76.4348 19.24 76.4988 19.528 76.6267 19.528C76.9894 19.5067 77.4908 19.0587 78.1308 18.184C78.7708 17.288 79.4001 16.1467 80.0188 14.76C80.6588 13.3733 81.0428 12.68 81.1708 12.68C81.3201 12.68 81.3948 12.7653 81.3948 12.936C81.3948 13.5333 81.0854 14.4827 80.4668 15.784C78.7814 19.368 77.3628 21.16 76.2108 21.16ZM72.3068 10.92C71.7094 10.92 71.0694 11.368 70.3868 12.264C69.7254 13.1387 69.3948 14.1733 69.3948 15.368C69.3948 16.5627 69.5654 17.544 69.9068 18.312C70.2694 19.08 70.7388 19.464 71.3148 19.464C72.0188 19.464 73.0534 17.704 74.4188 14.184C74.4401 14.0133 74.4614 13.7253 74.4828 13.32C74.5254 12.8933 74.5574 12.5733 74.5788 12.36C74.3868 12.0187 74.0454 11.6987 73.5548 11.4C73.0854 11.08 72.6694 10.92 72.3068 10.92ZM82.2528 12.648L84.0128 12.456C84.1834 12.456 84.3328 12.552 84.4608 12.744C84.5888 12.936 84.6528 13.1387 84.6528 13.352C84.6528 13.5653 84.5781 14.2907 84.4288 15.528C84.3008 16.7653 84.2368 17.7467 84.2368 18.472C84.2368 19.176 84.3008 19.528 84.4288 19.528C84.7914 19.5067 85.2928 19.0587 85.9328 18.184C86.5728 17.288 87.2021 16.1467 87.8208 14.76C88.4608 13.3733 88.8448 12.68 88.9728 12.68C89.1221 12.68 89.1968 12.7653 89.1968 12.936C89.1968 13.5333 88.8874 14.4827 88.2688 15.784C86.5834 19.368 85.1648 21.16 84.0128 21.16C83.1808 21.16 82.5514 20.9893 82.1248 20.648C81.9754 20.4987 81.9008 19.5707 81.9008 17.864C81.9008 16.1573 82.0821 14.696 82.4448 13.48C81.2074 13.48 80.3434 13.0853 79.8528 12.296C79.5968 11.8907 79.4688 11.432 79.4688 10.92C79.4688 10.408 79.5754 9.96 79.7888 9.576C80.0021 9.192 80.3008 9 80.6848 9C81.0901 9 81.4528 9.21333 81.7728 9.64C82.1141 10.0453 82.2848 10.504 82.2848 11.016C82.2848 11.528 82.1354 12.04 81.8368 12.552C81.9221 12.616 82.0608 12.648 82.2528 12.648ZM91.529 21.16C90.3343 21.16 89.385 20.712 88.681 19.816C87.977 18.8987 87.625 17.864 87.625 16.712C87.625 14.3867 88.1157 12.6267 89.097 11.432C90.0783 10.2373 91.3477 9.64 92.905 9.64C93.6303 9.64 94.2277 9.84267 94.697 10.248C95.1663 10.632 95.401 11.1653 95.401 11.848C95.401 13.128 94.857 14.2053 93.769 15.08C92.7023 15.9333 91.3903 16.3813 89.833 16.424C89.9183 17.256 90.1957 17.9813 90.665 18.6C91.1557 19.1973 91.721 19.496 92.361 19.496C93.001 19.496 93.577 19.3467 94.089 19.048C94.601 18.7493 95.0703 18.3227 95.497 17.768C96.393 16.5947 97.161 15.2613 97.801 13.768C97.9717 13.384 98.0997 13.1067 98.185 12.936C98.2917 12.7653 98.3983 12.68 98.505 12.68C98.633 12.68 98.697 12.7653 98.697 12.936C98.697 14.0027 98.0463 15.6027 96.745 17.736C95.337 20.0187 93.5983 21.16 91.529 21.16ZM89.833 15.656C91.0917 15.4427 92.009 15.0373 92.585 14.44C93.1823 13.8427 93.481 13.064 93.481 12.104C93.481 11.144 93.1717 10.664 92.553 10.664C91.8063 10.664 91.177 11.1867 90.665 12.232C90.153 13.256 89.8757 14.3973 89.833 15.656ZM112.687 2.472C112.815 2.45067 113.156 2.44 113.711 2.44C114.287 2.44 114.97 2.54667 115.759 2.76C116.57 2.952 117.348 3.28267 118.095 3.752C118.863 4.2 119.471 4.872 119.919 5.768C120.388 6.64267 120.623 7.688 120.623 8.904C120.623 10.9093 119.844 12.5307 118.287 13.768C116.73 15.0053 114.671 15.624 112.111 15.624C112.111 19.784 111.375 21.864 109.903 21.864C108.922 21.864 108.431 21.448 108.431 20.616C108.431 20.36 108.559 20.008 108.815 19.56C109.071 19.112 109.252 18.6 109.359 18.024C109.466 17.448 109.551 16.52 109.615 15.24C108.74 14.9627 108.303 14.5787 108.303 14.088C108.303 13.5973 108.527 13.352 108.975 13.352C109.21 13.352 109.444 13.384 109.679 13.448C109.956 7.752 110.148 4.60533 110.255 4.008C109.039 4.30667 108.026 4.79733 107.215 5.48C106.426 6.16267 106.031 6.97333 106.031 7.912C106.031 8.44533 105.914 8.86133 105.679 9.16C105.466 9.45867 105.188 9.608 104.847 9.608C104.207 9.608 103.887 9.24533 103.887 8.52C103.887 7.09067 104.516 5.864 105.775 4.84C107.055 3.79467 108.644 3.09067 110.543 2.728C110.948 1.36267 111.514 0.679998 112.239 0.679998C112.538 0.679998 112.687 1.27733 112.687 2.472ZM118.223 9.8C118.223 7.88 117.668 6.41867 116.559 5.416C115.471 4.392 114.148 3.848 112.591 3.784C112.271 7.56 112.111 11.112 112.111 14.44C112.41 14.4827 112.644 14.504 112.815 14.504C114.607 14.504 115.951 14.0453 116.847 13.128C117.764 12.2107 118.223 11.1013 118.223 9.8ZM123.847 12.648L125.607 12.456C125.777 12.456 125.927 12.552 126.055 12.744C126.183 12.936 126.247 13.1387 126.247 13.352C126.247 13.5653 126.172 14.2907 126.023 15.528C125.895 16.7653 125.831 17.7467 125.831 18.472C125.831 19.176 125.895 19.528 126.023 19.528C126.385 19.5067 126.887 19.0587 127.527 18.184C128.167 17.288 128.796 16.1467 129.415 14.76C130.055 13.3733 130.439 12.68 130.567 12.68C130.716 12.68 130.791 12.7653 130.791 12.936C130.791 13.5333 130.481 14.4827 129.863 15.784C128.177 19.368 126.759 21.16 125.607 21.16C124.775 21.16 124.145 20.9893 123.719 20.648C123.569 20.4987 123.495 19.5707 123.495 17.864C123.495 16.1573 123.676 14.696 124.039 13.48C122.801 13.48 121.937 13.0853 121.447 12.296C121.191 11.8907 121.062 11.432 121.062 10.92C121.062 10.408 121.169 9.96 121.383 9.576C121.596 9.192 121.895 9 122.279 9C122.684 9 123.047 9.21333 123.367 9.64C123.708 10.0453 123.879 10.504 123.879 11.016C123.879 11.528 123.729 12.04 123.431 12.552C123.516 12.616 123.655 12.648 123.847 12.648ZM139.235 14.056C140.088 13.7787 140.675 13.544 140.995 13.352C141.336 13.1387 141.592 12.9787 141.763 12.872L142.147 12.648C142.253 12.584 142.339 12.552 142.403 12.552C142.573 12.552 142.659 12.648 142.659 12.84C142.659 13.032 142.328 13.3733 141.667 13.864C141.005 14.3333 140.184 14.76 139.203 15.144C139.053 16.936 138.488 18.3867 137.507 19.496C136.525 20.6053 135.128 21.16 133.315 21.16C131.992 21.16 130.979 20.6373 130.275 19.592C129.571 18.5253 129.219 17.288 129.219 15.88C129.219 14.4507 129.635 13.1067 130.467 11.848C131.32 10.5893 132.408 9.96 133.731 9.96C134.328 9.53333 135.032 9.32 135.843 9.32C136.675 9.32 137.443 9.75733 138.147 10.632C138.851 11.5067 139.213 12.648 139.235 14.056ZM137.155 15.688L136.003 15.752C135.021 15.752 134.189 15.464 133.507 14.888C132.824 14.2907 132.483 13.64 132.483 12.936C132.483 12.232 132.6 11.624 132.835 11.112C131.917 11.8373 131.459 13.2667 131.459 15.4C131.459 16.424 131.672 17.4053 132.099 18.344C132.525 19.2613 133.197 19.72 134.115 19.72C135.032 19.72 135.747 19.336 136.259 18.568C136.771 17.7787 137.069 16.8187 137.155 15.688ZM135.171 10.376C134.829 10.376 134.563 10.536 134.371 10.856C134.179 11.1547 134.083 11.4853 134.083 11.848C134.083 12.6373 134.349 13.2773 134.883 13.768C135.437 14.2587 136.077 14.504 136.803 14.504H137.187C137.144 13.4587 136.963 12.5093 136.643 11.656C136.344 10.8027 135.853 10.376 135.171 10.376Z" fill="#024744"/>
</svg>
