<svg width="20" height="20" viewBox="0 0 20 20" fill="none" xmlns="http://www.w3.org/2000/svg">
<g clip-path="url(#clip0_233_898)">
<path d="M19.9974 9.29286V10.7012C19.9541 11.0142 19.9212 11.3314 19.867 11.6438C19.4768 13.8821 18.4763 15.8063 16.7894 17.3295C14.1735 19.6888 11.11 20.4942 7.67563 19.7075C4.9632 19.0873 2.88924 17.522 1.44069 15.1554C0.208103 13.1414 -0.212846 10.9396 0.098562 8.60588C0.309771 6.97361 0.938601 5.42346 1.92424 4.10534C3.50892 1.97243 5.60792 0.647509 8.22438 0.157707C8.58012 0.0909396 8.94161 0.0533828 9.30048 0.0012207H10.7057C10.8205 0.0168693 10.9352 0.0346044 11.05 0.047645C12.7651 0.240123 14.344 0.808168 15.7524 1.81594C17.9766 3.41158 19.3516 5.55596 19.8461 8.25379C19.9071 8.59702 19.9468 8.94702 19.9974 9.29286ZM10.0068 1.56139C5.36433 1.55409 1.58779 5.32124 1.56745 9.97983C1.5471 14.6197 5.33825 18.4212 9.99528 18.4301C14.6377 18.4384 18.4142 14.6703 18.4356 10.0111C18.4565 5.37027 14.6648 1.56869 10.0068 1.56139Z" fill="black" fill-opacity="0.6"/>
<path d="M9.22122 8.33606C9.22122 7.51016 9.22122 6.68408 9.22122 5.85783C9.22122 5.37586 9.53941 5.03732 9.99166 5.03419C10.4559 5.03159 10.7809 5.36907 10.7809 5.85992C10.7809 7.50511 10.7809 9.15066 10.7809 10.7965C10.7809 11.2707 10.4533 11.6223 10.0099 11.6311C9.56654 11.64 9.22175 11.2775 9.22122 10.7965C9.22053 9.97621 9.22053 9.15604 9.22122 8.33606Z" fill="black" fill-opacity="0.6"/>
<path d="M9.99893 14.6846C9.78988 14.6844 9.58561 14.6221 9.41207 14.5055C9.23852 14.389 9.10351 14.2235 9.02419 14.0301C8.94487 13.8367 8.92481 13.6241 8.96657 13.4193C9.00832 13.2144 9.11 13.0266 9.25869 12.8797C9.40739 12.7327 9.59639 12.6333 9.80171 12.594C10.007 12.5547 10.2194 12.5773 10.4118 12.6589C10.6043 12.7405 10.7682 12.8775 10.8826 13.0524C10.9971 13.2274 11.057 13.4324 11.0547 13.6414C11.0547 13.7794 11.0273 13.9161 10.9741 14.0435C10.9209 14.1709 10.8429 14.2865 10.7447 14.3835C10.6465 14.4806 10.53 14.5572 10.402 14.6088C10.274 14.6605 10.137 14.6863 9.99893 14.6846Z" fill="black" fill-opacity="0.6"/>
</g>
<defs>
<clipPath id="clip0_233_898">
<rect width="19.9974" height="20" fill="white"/>
</clipPath>
</defs>
</svg>
